<svg width="32" height="32" viewBox="0 0 32 32" fill="none" xmlns="http://www.w3.org/2000/svg">
<path d="M5.2 5H26.8C27.1183 5 27.4235 5.12877 27.6485 5.35798C27.8736 5.58719 28 5.89807 28 6.22222V25.7778C28 26.1019 27.8736 26.4128 27.6485 26.642C27.4235 26.8712 27.1183 27 26.8 27H5.2C4.88174 27 4.57652 26.8712 4.35147 26.642C4.12643 26.4128 4 26.1019 4 25.7778V6.22222C4 5.89807 4.12643 5.58719 4.35147 5.35798C4.57652 5.12877 4.88174 5 5.2 5ZM25.6 14.7778H6.4V24.5556H25.6V14.7778ZM25.6 12.3333V7.44444H6.4V12.3333H25.6ZM18.4 19.6667H23.2V22.1111H18.4V19.6667Z" fill="white"/>
</svg>
