<svg width="13" height="13" viewBox="0 0 13 13" fill="none" xmlns="http://www.w3.org/2000/svg">
<g clip-path="url(#clip0_433_1915)">
<path d="M0.0698242 2.79946C0.0698242 2.50196 0.188006 2.21665 0.398371 2.00628C0.608736 1.79592 0.894053 1.67773 1.19155 1.67773H10.9132C11.2107 1.67773 11.496 1.79592 11.7064 2.00628C11.9168 2.21665 12.0349 2.50196 12.0349 2.79946V9.52984C12.0349 9.82734 11.9168 10.1127 11.7064 10.323C11.496 10.5334 11.2107 10.6516 10.9132 10.6516H1.19155C0.894053 10.6516 0.608736 10.5334 0.398371 10.323C0.188006 10.1127 0.0698242 9.82734 0.0698242 9.52984L0.0698242 2.79946ZM1.19155 2.42555C1.09239 2.42555 0.997281 2.46495 0.92716 2.53507C0.857038 2.60519 0.817644 2.7003 0.817644 2.79946V9.52984C0.817644 9.62901 0.857038 9.72411 0.92716 9.79424C0.997281 9.86436 1.09239 9.90375 1.19155 9.90375H10.9132C11.0124 9.90375 11.1075 9.86436 11.1776 9.79424C11.2477 9.72411 11.2871 9.62901 11.2871 9.52984V2.79946C11.2871 2.7003 11.2477 2.60519 11.1776 2.53507C11.1075 2.46495 11.0124 2.42555 10.9132 2.42555H1.19155Z" fill="#A3A2A9"/>
<path d="M1.56543 3.54725C1.56543 3.44808 1.60482 3.35298 1.67495 3.28286C1.74507 3.21273 1.84017 3.17334 1.93934 3.17334H4.1828C4.28197 3.17334 4.37707 3.21273 4.44719 3.28286C4.51731 3.35298 4.55671 3.44808 4.55671 3.54725C4.55671 3.64642 4.51731 3.74152 4.44719 3.81164C4.37707 3.88177 4.28197 3.92116 4.1828 3.92116H2.31325V5.79071C2.31325 5.88988 2.27386 5.98498 2.20373 6.0551C2.13361 6.12522 2.03851 6.16462 1.93934 6.16462C1.84017 6.16462 1.74507 6.12522 1.67495 6.0551C1.60482 5.98498 1.56543 5.88988 1.56543 5.79071V3.54725ZM10.5393 8.78199C10.5393 8.88116 10.4999 8.97626 10.4298 9.04638C10.3596 9.1165 10.2645 9.1559 10.1654 9.1559H7.9219C7.82273 9.1559 7.72762 9.1165 7.6575 9.04638C7.58738 8.97626 7.54799 8.88116 7.54799 8.78199C7.54799 8.68282 7.58738 8.58772 7.6575 8.51759C7.72762 8.44747 7.82273 8.40808 7.9219 8.40808H9.79145V6.53853C9.79145 6.43936 9.83084 6.34426 9.90096 6.27413C9.97108 6.20401 10.0662 6.16462 10.1654 6.16462C10.2645 6.16462 10.3596 6.20401 10.4298 6.27413C10.4999 6.34426 10.5393 6.43936 10.5393 6.53853V8.78199Z" fill="#A3A2A9"/>
</g>
<defs>
<clipPath id="clip0_433_1915">
<rect width="11.9651" height="11.9651" fill="white" transform="translate(0.0698242 0.182129)"/>
</clipPath>
</defs>
</svg>
